<svg width="75" height="72" viewBox="0 0 75 72" fill="none" xmlns="http://www.w3.org/2000/svg">
<path fill-rule="evenodd" clip-rule="evenodd" d="M57.2938 14.2127C55.3447 14.2127 53.7646 15.8034 53.7646 17.7658C53.7646 19.7283 55.3447 21.319 57.2938 21.319C59.243 21.319 60.823 19.7283 60.823 17.7658C60.823 15.8034 59.243 14.2127 57.2938 14.2127ZM50.2354 17.7658C50.2354 13.8412 53.3957 10.6595 57.2938 10.6595C61.192 10.6595 64.3522 13.8412 64.3522 17.7658C64.3522 21.6905 61.192 24.8721 57.2938 24.8721C53.3957 24.8721 50.2354 21.6905 50.2354 17.7658Z" fill="#0060C7"/>
<path fill-rule="evenodd" clip-rule="evenodd" d="M46.1017 26.8723C47.1063 25.6081 48.6272 24.8721 50.2355 24.8721H60.823C60.9598 24.8721 61.0955 24.8774 61.2301 24.8877H65.9238C66.7389 24.8877 67.6431 25.2194 68.426 25.633C69.264 26.0755 70.1696 26.721 71.0083 27.5646C72.6949 29.2611 74.1733 31.8297 74.1733 35.2105C74.1733 39.3696 72.8034 42.4081 71.1091 44.4272C70.2709 45.4262 69.3561 46.172 68.4975 46.6778C68.2379 46.8307 67.966 46.972 67.6884 47.0929V67.3194C67.6884 69.8978 65.6003 72 63.0394 72C60.4784 72 58.3904 69.8978 58.3904 67.3194V54.5764H56.1509V67.3194C56.1509 69.8978 54.0629 72 51.5019 72C48.9409 72 46.8529 69.8978 46.8529 67.3194V42.9201C45.8725 43.8725 44.557 44.4144 43.1771 44.4144H32.5895C29.6657 44.4144 27.2957 42.0283 27.2957 39.0847C27.2957 36.1411 29.6657 33.7549 32.5895 33.7549H40.6327L46.1017 26.8723ZM50.2355 28.4252C49.6994 28.4252 49.1924 28.6706 48.8575 29.092L42.329 37.3081H32.5895C31.6149 37.3081 30.8249 38.1035 30.8249 39.0847C30.8249 40.0659 31.6149 40.8612 32.5895 40.8612H43.1771C43.7131 40.8612 44.2201 40.6159 44.555 40.1945L50.3821 32.8612V67.3194C50.3821 67.9355 50.8901 68.4468 51.5019 68.4468C52.1137 68.4468 52.6217 67.9355 52.6217 67.3194V51.0233H61.9196V67.3194C61.9196 67.9355 62.4276 68.4468 63.0394 68.4468C63.6512 68.4468 64.1592 67.9355 64.1592 67.3194V43.96H65.9238C65.9132 43.96 65.9166 43.9591 65.933 43.9552C65.9983 43.9393 66.2691 43.8738 66.715 43.611C67.2211 43.3129 67.8285 42.8309 68.4131 42.1342C69.5649 40.7618 70.6441 38.5371 70.6441 35.2105C70.6441 32.9489 69.6732 31.2443 68.5141 30.0783C67.9298 29.4908 67.3132 29.0577 66.7865 28.7793C66.281 28.5125 65.9859 28.4538 65.9317 28.443C65.9236 28.4414 65.9238 28.4409 65.9238 28.4409H61.0736L60.9916 28.433C60.9365 28.4279 60.8804 28.4252 60.823 28.4252H50.2355Z" fill="#0060C7"/>
<path fill-rule="evenodd" clip-rule="evenodd" d="M0.826691 0H59.0585V9.16713H55.5293V3.55315H4.35589V46.191H44.9417V49.7441H0.826691V0Z" fill="#0060C7"/>
<path fill-rule="evenodd" clip-rule="evenodd" d="M64.1513 45.5247V32.0096H67.6805V45.5247H64.1513Z" fill="#0060C7"/>
</svg>
