<svg xmlns="http://www.w3.org/2000/svg" xmlns:xlink="http://www.w3.org/1999/xlink" width="32" height="32" xmlns:v="https://vecta.io/nano"><rect width="32" height="32" rx="2" fill="#fff"/><path d="M16.434 7.777h-1.737c-.225 0-.407.182-.407.407s.182.407.407.407h1.737c.145 0 .28-.078.352-.203a.41.41 0 0 0 0-.407c-.073-.126-.207-.204-.352-.203zm-3.473 0h-2.605c-.145 0-.28.078-.352.203a.41.41 0 0 0 0 .407c.073.126.207.204.352.203h2.605c.145 0 .28-.078.352-.203a.41.41 0 0 0 0-.407c-.073-.126-.207-.204-.352-.203z"/><use xlink:href="#B"/><path d="M13.825 6.04h-.868c-.225 0-.407.182-.407.407s.182.407.407.407h.868c.225 0 .407-.182.407-.407s-.182-.407-.407-.407z"/><use xlink:href="#B" x="-5.211"/><path d="M25.119 14.29h-4.37V8.618c-.001-1.184-.96-2.143-2.144-2.144h-.024V3.407c0-.133-.065-.257-.173-.334s-.248-.095-.373-.049l-1.054.384-1.059-.383c-.09-.033-.188-.033-.278 0l-1.055.383-1.055-.383c-.09-.033-.188-.033-.278 0l-1.055.383-1.055-.383c-.09-.033-.188-.033-.278 0l-1.056.383-1.055-.383c-.125-.045-.264-.027-.373.049s-.173.201-.173.334v3.066h-.03c-1.184.001-2.143.96-2.144 2.144v18.238c.001 1.184.96 2.143 2.144 2.144h10.425c1.025-.004 1.904-.731 2.1-1.737h4.409a.84.84 0 0 0 .841-.841V15.131a.84.84 0 0 0-.837-.841zM9.025 3.988l.648.236c.09.033.188.033.278 0l1.056-.384 1.055.384c.09.033.188.033.278 0l1.055-.384 1.055.384c.09.033.188.033.278 0l1.053-.384 1.055.384c.09.033.188.033.278 0l.648-.236v5.526H9.025zm10.91 22.868a1.33 1.33 0 0 1-1.33 1.33H8.181a1.33 1.33 0 0 1-1.33-1.33V8.618a1.33 1.33 0 0 1 1.33-1.33h.027v2.226h-.027c-.225 0-.407.182-.407.407s.182.407.407.407h10.425c.225 0 .407-.182.407-.407s-.182-.407-.407-.407h-.025V7.288h.027a1.33 1.33 0 0 1 1.33 1.33zm1.737-.407h-.923V15.1h.923zm3.474-.027c0 .007-.003.014-.008.019s-.012.008-.019.008h-.9v-8.278c0-.225-.182-.407-.407-.407s-.407.182-.407.407v8.278h-.923V15.1h.923v1.33c0 .225.182.407.407.407s.407-.182.407-.407V15.1h.9c.007 0 .014.003.019.008s.008.012.008.019z"/><use xlink:href="#C"/><use xlink:href="#C" y="3.474"/><use xlink:href="#D"/><path d="M17.52 17.764h-.434c-.464-.013-.899.227-1.135.627s-.236.897 0 1.297.671.64 1.135.627h.434c.691-.019 1.24-.585 1.24-1.275s-.55-1.256-1.24-1.275zm0 1.737h-.434a.46.46 0 1 1 0-.923h.434a.46.46 0 1 1 0 .923z"/><use xlink:href="#C" x="3.908" y="3.474"/><use xlink:href="#D" x="3.908"/><use xlink:href="#E"/><use xlink:href="#E" y="3.474"/><path d="M9.704 24.712H9.27c-.691.019-1.24.585-1.24 1.275s.55 1.256 1.24 1.275h.434c.691-.019 1.24-.585 1.24-1.276s-.55-1.256-1.24-1.275zm0 1.737H9.27a.462.462 0 1 1 0-.923h.434a.462.462 0 1 1 0 .923zm8.468-15.198H8.614a.84.84 0 0 0-.841.841V16a.84.84 0 0 0 .841.841h9.553a.84.84 0 0 0 .841-.841v-3.908a.84.84 0 0 0-.836-.841zM18.199 16c0 .015-.012.027-.027.027H8.614c-.015 0-.027-.012-.027-.027v-3.908c0-.015.012-.027.027-.027h9.553c.015 0 .027.012.027.027V16z"/><defs ><path id="B" d="M16.435 6.04h-.869c-.225 0-.407.182-.407.407s.182.407.407.407h.869c.225 0 .407-.182.407-.407s-.182-.407-.407-.407z"/><path id="C" d="M13.612 17.764h-.434c-.464-.013-.899.227-1.135.627s-.236.897 0 1.297.671.64 1.135.627h.434c.464.013.899-.227 1.135-.627s.236-.897 0-1.297-.671-.64-1.135-.627zm0 1.737h-.434a.46.46 0 1 1 0-.923h.434a.46.46 0 1 1 0 .923z"/><path id="D" d="M13.612 24.712h-.434c-.464-.013-.899.227-1.135.627s-.236.897 0 1.297.671.64 1.135.627h.434c.691-.019 1.24-.585 1.24-1.276s-.55-1.256-1.24-1.275zm0 1.737h-.434a.46.46 0 1 1 0-.923h.434a.46.46 0 1 1 0 .923z"/><path id="E" d="M9.704 17.764H9.27c-.464-.013-.899.227-1.135.627s-.236.897 0 1.297.671.64 1.135.627h.434c.464.013.899-.227 1.135-.627s.236-.897 0-1.297-.671-.64-1.135-.627zm0 1.737H9.27a.46.46 0 1 1 0-.923h.434a.46.46 0 1 1 0 .923z"/></defs></svg>