<svg xmlns="http://www.w3.org/2000/svg" width="32" height="32" xmlns:v="https://vecta.io/nano"><rect width="32" height="32" rx="2" fill="#fff"/><path d="M25.352 13.961h-3.161v-.816c-.001-.213-.173-.385-.386-.385h-8.326c-.205.01-.366.18-.366.385s.161.375.366.386h7.941v2.956c-.004 2.6-1.382 5.005-3.624 6.322H10.4c-2.244-1.316-3.625-3.721-3.629-6.323v-2.96h2.583c.205-.01.366-.18.366-.386s-.161-.375-.366-.386H6.386c-.213 0-.386.173-.386.386v3.341a8.08 8.08 0 0 0 3.04 6.322H6.386c-.213 0-.385.172-.386.385a2.55 2.55 0 0 0 2.544 2.544h12.028a2.55 2.55 0 0 0 2.544-2.544c-.001-.213-.173-.385-.386-.385h-3.58a8.14 8.14 0 0 0 1.785-1.992h1.088a3.72 3.72 0 0 0 3.714-3.714v-2.752c0-.213-.172-.385-.385-.385zM22.3 23.579c-.181.811-.9 1.387-1.731 1.388H8.544c-.831-.001-1.55-.577-1.731-1.388H22.3zm-.112-7.093v-.212h1.234v.829a1.4 1.4 0 0 1-1.4 1.4h-.088c.17-.659.256-1.337.257-2.017zm2.776.617c-.002 1.625-1.318 2.941-2.943 2.943h-.656a8.05 8.05 0 0 0 .329-.771h.327c1.199-.001 2.171-.973 2.172-2.172v-1.214c-.001-.213-.173-.385-.386-.385h-1.616v-.771h2.776zm-10.5-8.97l-.2-.252a1 1 0 0 1 0-1.256c.106-.166.07-.386-.084-.51s-.377-.11-.516.031a1.77 1.77 0 0 0 0 2.216l.2.252c.384.48.384 1.162 0 1.642l-.206.259c-.104.105-.138.26-.089.399s.173.238.32.255.29-.051.37-.176l.206-.259a2.08 2.08 0 0 0 0-2.602zm2.137.866l-.2-.252a1 1 0 0 1 0-1.257c.106-.166.07-.386-.084-.51s-.377-.11-.516.031c-.518.648-.518 1.568 0 2.216l.2.252c.384.48.384 1.162 0 1.642l-.208.261c-.099.106-.13.258-.08.394s.171.233.314.251.285-.046.366-.165l.205-.259A2.08 2.08 0 0 0 16.601 9zm-4.274 0l-.2-.252a1 1 0 0 1 0-1.257c.106-.166.07-.386-.084-.51s-.377-.11-.516.031c-.518.648-.518 1.568 0 2.216l.2.252c.384.48.384 1.162 0 1.642l-.206.259c-.099.106-.13.258-.08.394s.171.233.314.251.285-.046.366-.165l.206-.259a2.08 2.08 0 0 0 0-2.601zm-.534 3.873c-.13-.13-.334-.15-.487-.048s-.213.298-.142.469.251.267.432.231.311-.194.311-.378a.39.39 0 0 0-.113-.273zm8.162 3.228c-.212.001-.384.173-.385.385-.006 1.445-.577 2.83-1.592 3.858-.097.098-.134.24-.098.373s.141.236.274.272.275-.004.372-.102a6.3 6.3 0 0 0 1.816-4.4c0-.103-.04-.201-.113-.274a.38.38 0 0 0-.274-.112zm-2.626 5.29c-.05-.089-.134-.154-.232-.182s-.204-.014-.293.036h-.009c-.125.065-.205.193-.208.334s.071.273.194.343a.39.39 0 0 0 .394-.005h.009c.186-.105.251-.34.146-.526z"/></svg>