<svg xmlns="http://www.w3.org/2000/svg" width="32.704" height="32.706" fill="#f1f1f1" xmlns:v="https://vecta.io/nano"><path d="M31.684 14.308a1.02 1.02 0 0 0-1.022 1.022v11.573l-8.178 3.273V19.418a1.022 1.022 0 1 0-2.044 0v10.758l-8.176-3.27V10.708L17 12.603c.339.135.725.079 1.012-.147s.431-.588.379-.95a1.02 1.02 0 0 0-.633-.803L11.64 8.254h0l-.016-.006c-.243-.098-.515-.098-.758 0l-.018.006h0l-10.2 4.082a1.02 1.02 0 0 0-.642.948v18.4a1.02 1.02 0 0 0 1.4.948l9.84-3.935 9.821 3.929h0l.018.008c.243.098.515.098.758 0l.018-.008h0l10.2-4.08a1.03 1.03 0 0 0 .64-.95V15.33a1.02 1.02 0 0 0-1.017-1.022zM10.22 26.901l-8.176 3.275v-16.2l8.176-3.27zM25.55 4.088c-1.24 0-2.358.747-2.833 1.893s-.212 2.464.665 3.341 2.196 1.139 3.341.665a3.07 3.07 0 0 0-1.173-5.899zm0 4.088a1.02 1.02 0 0 1-.723-1.745 1.02 1.02 0 0 1 1.745.723 1.02 1.02 0 0 1-1.022 1.022zm0-8.176c-3.949.004-7.15 3.205-7.154 7.154 0 3.671 5.74 10.173 6.394 10.9a1.02 1.02 0 0 0 1.521 0c.654-.73 6.394-7.232 6.394-10.9C32.701 3.204 29.5.004 25.55 0zm0 15.814c-2.232-2.647-5.11-6.71-5.11-8.66a5.11 5.11 0 1 1 10.22 0c0 1.946-2.88 6.013-5.11 8.66z"/></svg>