<svg xmlns="http://www.w3.org/2000/svg" width="32" height="32" xmlns:v="https://vecta.io/nano"><rect width="32" height="32" rx="2" fill="#fff"/><path d="M24.739 12.01c.283-.284.442-.669.442-1.07-.001-.255-.074-.505-.212-.72l-1.51-2.375A1.82 1.82 0 0 0 21.927 7H10.254a1.82 1.82 0 0 0-1.531.843l-1.511 2.376a1.34 1.34 0 0 0-.212.72 1.52 1.52 0 0 0 .445 1.074 1.54 1.54 0 0 0 .464.312v6.19c-.441.001-.817.32-.891.755s.176.86.591 1.007v3.142c-.416.147-.665.572-.591 1.007s.45.753.891.755h16.363c.441-.001.817-.32.891-.755s-.176-.86-.591-1.007v-3.142c.416-.147.665-.572.591-1.007s-.45-.753-.891-.755v-6.19c.174-.076.332-.182.467-.315zm-.428-.428c-.171.171-.403.267-.645.267h-.909a.91.91 0 0 1-.909-.909h2.727a.91.91 0 0 1-.264.641zm-3.029 6.934l.26-2.084a.3.3 0 0 0-.3-.341h-1.818a.3.3 0 0 0-.3.341l.26 2.084H17V17.3c-.003-.332-.274-.6-.606-.6H13.06v-1.215h.3c.335 0 .606-.271.606-.606v-.607c0-.335-.271-.606-.606-.606h-2.421c-.335 0-.606.271-.606.606v.606c0 .335.271.606.606.606h.3V16.7h-.3c-.335 0-.606.271-.606.606v1.212h-.606v-6.094c.365-.076.688-.285.909-.585a1.51 1.51 0 0 0 1.212.615h1.212a1.51 1.51 0 0 0 1.212-.615 1.51 1.51 0 0 0 1.212.615H16.7a1.51 1.51 0 0 0 1.212-.615 1.51 1.51 0 0 0 1.212.615h1.212a1.51 1.51 0 0 0 1.212-.615c.221.3.544.509.909.585v6.091zM19.767 16.7H20.9l-.227 1.818h-.677zm-7.01-1.822h-1.818v-.606h2.424v.606zm-.909.606h.606V16.7h-.606zm-.3 1.818h4.846v1.212h-5.455V17.3zm9.7-6.363a.91.91 0 0 1-.909.909h-1.218a.91.91 0 0 1-.909-.909zm-3.636 0a.91.91 0 0 1-.909.909h-1.218a.91.91 0 0 1-.909-.909zm-6.666 0h3.03a.91.91 0 0 1-.909.909h-1.219a.91.91 0 0 1-.909-.909zm-1.7-2.772a1.21 1.21 0 0 1 1.008-.561h11.673a1.21 1.21 0 0 1 1.02.563l1.378 2.164h-2.576l-.529-1.325c-.062-.155-.239-.231-.394-.169s-.231.239-.169.394l.44 1.1h-2.885v-.606c0-.167-.136-.303-.303-.303s-.303.136-.303.303v.606h-3.031v-.606c0-.167-.136-.303-.303-.303s-.303.136-.303.303v.606h-2.885l.44-1.1c.062-.155-.014-.332-.169-.394s-.332.014-.394.169l-.53 1.325H7.855zm-1.64 2.772h2.727a.91.91 0 0 1-.909.909h-.909c-.241.001-.473-.095-.643-.266s-.266-.402-.266-.643zm.909 1.515h.606v6.06h-.606zm15.454 10.909H8.212v-3.03h15.757zm.3 1.212H7.909c-.167 0-.303-.136-.303-.303s.136-.303.303-.303h16.363c.167 0 .303.136.303.303s-.136.303-.303.303zm.3-5.151a.3.3 0 0 1-.3.3H7.909c-.167 0-.303-.136-.303-.303s.136-.303.303-.303h16.363a.3.3 0 0 1 .303.306zm-.909-.909h-.6v-6.061h.606z"/></svg>