<svg xmlns="http://www.w3.org/2000/svg" width="32" height="32" xmlns:v="https://vecta.io/nano"><rect width="32" height="32" rx="2" fill="#fff"/><path d="M27.37 10.071a.25.25 0 0 0 0-.353l-5.376-5.377a.25.25 0 0 0-.353 0 2.05 2.05 0 0 1-2.894 0 .25.25 0 0 0-.353 0L4.342 18.394a.25.25 0 0 0 0 .353 2.05 2.05 0 0 1 0 2.894.25.25 0 0 0 0 .353l5.377 5.377a.25.25 0 0 0 .353 0 2.05 2.05 0 0 1 2.894 0 .25.25 0 0 0 .353 0L27.37 13.318a.25.25 0 0 0 0-.353 2.05 2.05 0 0 1 0-2.894zM13.133 26.857a2.55 2.55 0 0 0-3.229 0l-5.049-5.049a2.55 2.55 0 0 0 0-3.229L18.58 4.857a2.55 2.55 0 0 0 3.229 0l5.046 5.047a2.55 2.55 0 0 0 0 3.229zm6.478-19.98a1.02 1.02 0 0 0-1.437 0l-11.3 11.3a1.02 1.02 0 0 0 0 1.437l5.224 5.217a1.02 1.02 0 0 0 1.437 0l11.3-11.3a1.02 1.02 0 0 0 0-1.437zm4.871 6.3l-11.3 11.3c-.201.2-.527.2-.728 0l-5.219-5.219a.52.52 0 0 1 0-.728l11.3-11.3a.52.52 0 0 1 .728 0l5.219 5.219a.52.52 0 0 1 0 .728zm-13.109 5.915l.416-.416a.3.3 0 0 0 .1-.19c.004-.061-.02-.121-.065-.163a.21.21 0 0 0-.163-.065.3.3 0 0 0-.19.1l-1.209 1.209a.3.3 0 0 0-.1.185.2.2 0 0 0 .065.165c.041.044.1.068.16.065a.29.29 0 0 0 .188-.1l.416-.416 1.359 1.367c.058.067.14.11.228.12a.27.27 0 0 0 .273-.273c-.011-.089-.055-.17-.123-.228zm1.114-1.349a.35.35 0 0 0-.225-.12.27.27 0 0 0-.273.273.36.36 0 0 0 .12.225l1.482 1.489a.36.36 0 0 0 .225.12c.073.002.143-.025.194-.076a.27.27 0 0 0 .079-.194c-.01-.088-.053-.17-.12-.228zm3.115-.936c-.044-.046-.105-.071-.168-.07a.23.23 0 0 0-.163.07.19.19 0 0 0-.068.163.57.57 0 0 0 .063.183.7.7 0 0 1 .068.41.65.65 0 0 1-.2.358.67.67 0 0 1-.335.193.63.63 0 0 1-.393-.045 1.35 1.35 0 0 1-.428-.305 1.15 1.15 0 0 1-.383-.656.63.63 0 0 1 .2-.551.6.6 0 0 1 .318-.178.82.82 0 0 1 .386.035.65.65 0 0 0 .2.038c.056-.005.108-.032.145-.075a.21.21 0 0 0 .06-.163c-.002-.06-.027-.118-.07-.16a.63.63 0 0 0-.348-.158 1.03 1.03 0 0 0-.5.047 1.25 1.25 0 0 0-.5.315c-.121.12-.218.262-.285.418s-.101.317-.1.483a1.22 1.22 0 0 0 .118.5 1.65 1.65 0 0 0 .34.473 1.83 1.83 0 0 0 .29.25 1.47 1.47 0 0 0 .313.155 1.33 1.33 0 0 0 .325.07 1.06 1.06 0 0 0 .36-.032 1.07 1.07 0 0 0 .308-.133 1.71 1.71 0 0 0 .3-.25 1.25 1.25 0 0 0 .28-.405 1 1 0 0 0 .013-.751.71.71 0 0 0-.146-.229zm2.257-1.562a1.36 1.36 0 0 0-.223-.055l-1.279-.23.025-.9a.33.33 0 0 0-.08-.25.22.22 0 0 0-.168-.068c-.121.011-.222.096-.253.213-.005.058-.005.117 0 .175l.033 1.527-.661-.661a.35.35 0 0 0-.225-.12.28.28 0 0 0-.195.08.27.27 0 0 0-.08.195c.013.087.057.166.123.223l1.4 1.4.14.133c.031.027.066.047.105.06.081.022.168.004.234-.048s.104-.131.102-.215c-.011-.089-.055-.17-.123-.228l-.388-.388v-.615l1.144.25.165.043a.41.41 0 0 0 .175 0c.063-.016.12-.051.163-.1.052-.046.084-.111.088-.18a.2.2 0 0 0-.06-.158c-.047-.04-.102-.069-.162-.083zm0 0"/><path d="M19.611 13.45c-.07.01-.133.045-.178.1l-.886.886-.538-.538.8-.791a.25.25 0 0 0 .09-.17.2.2 0 0 0-.063-.148c-.037-.04-.09-.062-.145-.06-.065.008-.125.04-.168.09l-.791.789-.461-.461.859-.856c.054-.044.09-.106.1-.175a.2.2 0 0 0-.213-.213c-.069.01-.131.046-.175.1l-1 1c-.046.044-.083.096-.108.155-.018.048-.018.102 0 .15.025.06.062.114.11.158l1.412 1.412c.059.07.142.114.233.123.091-.008.175-.053.233-.123l1.029-1.016c.055-.044.091-.108.1-.178a.2.2 0 0 0-.063-.153.2.2 0 0 0-.177-.081zm0 0"/><path d="M19.471 10.997l.416-.415a.3.3 0 0 0 .1-.19.2.2 0 0 0-.065-.163.21.21 0 0 0-.163-.065.3.3 0 0 0-.19.1l-1.212 1.209a.3.3 0 0 0-.1.185.2.2 0 0 0 .065.165.21.21 0 0 0 .163.065c.073-.009.14-.044.188-.1l.416-.416 1.364 1.364c.058.067.14.11.228.12a.27.27 0 0 0 .273-.273c-.011-.089-.055-.17-.123-.228zm0 0"/></svg>